<?xml version="1.0" encoding="UTF-8"?>
<svg xmlns="http://www.w3.org/2000/svg" viewBox="0 0 53.14 42.83">
<defs>
    <style>.purple{fill:#890052;}</style>
</defs>
<path class="purple" d="M35.24,1.74l0-.08-.08,0A27,27,0,0,0,27.54,0H27.4l-.78,7.73h-.05a2.11,2.11,0,0,0-2.1,2.11V15.7a2.1,2.1,0,0,0,1.15,1.87l-1,9.55-9.11-9.06L19,2.68a23.67,23.67,0,0,1,6.61-1.34h.14V0h-.16A27,27,0,0,0,18,1.63l-.08,0L14.13,18.4l0,.08L25.48,29.8l.22.22,1.24-12.25a2.11,2.11,0,0,0,1.74-2.07V9.84a2.08,2.08,0,0,0-.78-1.62l.68-6.82a25.14,25.14,0,0,1,5.54,1.28l3.49,15.38L27.41,28.2l-.05.05v1.82L39,18.54l.06-.06Zm-10.47,14V9.84A1.81,1.81,0,0,1,26.57,8h0l-.94,9.22A1.81,1.81,0,0,1,24.77,15.7Zm2.12-7.63a1.66,1.66,0,0,1,.69.27l-.92,9.16h-.09a1.9,1.9,0,0,1-.63-.12ZM25.47,29.36l-11-11L18.18,1.89A26.41,26.41,0,0,1,25.48.32v.73a24.15,24.15,0,0,0-6.62,1.37l-.09,0L15.23,18.08l0,.08,9.68,9.62,1-10.09a2.08,2.08,0,0,0,.66.12h.06ZM28.38,9.84V15.7A1.81,1.81,0,0,1,27,17.46l.89-8.88A1.78,1.78,0,0,1,28.38,9.84Zm-.72,19.51v-1L37.88,18.22l.06-.06L34.39,2.53l0-.09-.08,0a25.48,25.48,0,0,0-5.83-1.33h-.15L27.62,8a2.17,2.17,0,0,0-.7-.25L27.67.33A26.81,26.81,0,0,1,35,1.89l3.74,16.49Z" transform="translate(0 0)"></path>
<path class="purple" d="M3.53,42.75,0,40.66V40l3.53-2v1L1.26,40.35l2.27,1.34ZM.3,40.49l2.93,1.73v-.36L.67,40.35l2.56-1.5v-.34L.3,40.22Z" transform="translate(0 0)"></path>
<path class="purple" d="M49.61,42.78V41.73l2.27-1.34-2.27-1.33V38l3.53,2.06v.61Zm.3-.88v.36l2.93-1.74v-.27l-2.93-1.71v.34l2.56,1.51Z" transform="translate(0 0)"></path>
<path class="purple" d="M6.9,42.83a2.41,2.41,0,0,1-1.73-.76,2.4,2.4,0,0,1,0-3.41,2.38,2.38,0,0,1,1.73-.75,2.47,2.47,0,0,1,1.23.37,2.9,2.9,0,0,1,.29.19V35.36h.91v7.39H8.42v-.5l-.32.21A2.4,2.4,0,0,1,6.9,42.83Zm0-4.62a2.07,2.07,0,0,0-1.51.66,2.09,2.09,0,0,0,0,3,2.1,2.1,0,0,0,1.51.67A2.22,2.22,0,0,0,8,42.2a2.44,2.44,0,0,0,.5-.4l.26-.28v.93H9V35.66H8.72V39.2l-.26-.28A2,2,0,0,0,8,38.54,2.2,2.2,0,0,0,6.9,38.21Zm0,4a1.75,1.75,0,0,1-1.28-.58,1.83,1.83,0,0,1,0-2.6,1.76,1.76,0,0,1,1.28-.59,1.93,1.93,0,0,1,1.84,1.89,1.78,1.78,0,0,1-.54,1.3A1.81,1.81,0,0,1,6.89,42.25Zm0-3.47a1.45,1.45,0,0,0-1.06.5,1.48,1.48,0,0,0-.46,1.09,1.51,1.51,0,0,0,.45,1.09,1.42,1.42,0,0,0,2.15,0,1.44,1.44,0,0,0,.46-1.08A1.5,1.5,0,0,0,8,39.28,1.49,1.49,0,0,0,6.89,38.78Z" transform="translate(0 0)"></path>
<path class="purple" d="M12.75,42.83A2.42,2.42,0,0,1,12,42.7a2.52,2.52,0,0,1-1.71-2.36A2.44,2.44,0,0,1,12,38a2.35,2.35,0,0,1,2.69.94l.07.11L12,41.73a1.46,1.46,0,0,0,1.47,0h0a2.72,2.72,0,0,0,1-1l.27-.43V41.8l0,0A2.53,2.53,0,0,1,12.75,42.83Zm-.06-4.62a1.91,1.91,0,0,0-.64.1,2.13,2.13,0,0,0-1.5,2,2.19,2.19,0,0,0,3.91,1.35v-.45a2.39,2.39,0,0,1-.82.74,1.72,1.72,0,0,1-1.93-.11l-.14-.1L14.33,39A2.05,2.05,0,0,0,12.69,38.21Zm-1.33,3.35-.11-.13a1.81,1.81,0,0,1,2.54-2.53l.13.11Zm1.37-2.75a1.56,1.56,0,0,0-1.08.47,1.43,1.43,0,0,0-.26,1.82L13.46,39A1.37,1.37,0,0,0,12.73,38.81Z" transform="translate(0 0)"></path>
<path class="purple" d="M25.6,42.83a2.53,2.53,0,0,1-.8-.13,2.49,2.49,0,0,1-1.7-2.36A2.44,2.44,0,0,1,24.81,38a2.34,2.34,0,0,1,2.68.94l.08.11-2.69,2.66a1.42,1.42,0,0,0,1.46,0h0a2.7,2.7,0,0,0,1-1l.28-.43V41.8l0,0A2.51,2.51,0,0,1,25.6,42.83Zm-.06-4.62a1.87,1.87,0,0,0-.64.1,2.12,2.12,0,0,0-1.5,2,2.18,2.18,0,0,0,3.9,1.35v-.45a2.45,2.45,0,0,1-.81.74,1.74,1.74,0,0,1-1.94-.11l-.14-.1L27.17,39A2,2,0,0,0,25.54,38.21ZM24.2,41.56l-.11-.13a1.75,1.75,0,0,1,.19-2.36,1.72,1.72,0,0,1,2.35-.17l.13.11Zm1.37-2.75a1.56,1.56,0,0,0-1.08.47,1.44,1.44,0,0,0-.26,1.82L26.31,39A1.43,1.43,0,0,0,25.57,38.81Z" transform="translate(0 0)"></path>
<path class="purple" d="M41.52,42.83a2.44,2.44,0,0,1-.8-.13A2.52,2.52,0,0,1,39,40.34,2.43,2.43,0,0,1,40.72,38a2.36,2.36,0,0,1,2.69.94l.07.11-2.69,2.66a1.44,1.44,0,0,0,1.47,0h0a2.72,2.72,0,0,0,1-1l.27-.43V41.8l0,0A2.52,2.52,0,0,1,41.52,42.83Zm-.07-4.62a1.85,1.85,0,0,0-.63.1,2.12,2.12,0,0,0-1.5,2,2.18,2.18,0,0,0,3.9,1.35v-.45a2.39,2.39,0,0,1-.82.74,1.72,1.72,0,0,1-1.93-.11l-.14-.1L43.09,39A2.05,2.05,0,0,0,41.45,38.21Zm-1.33,3.35L40,41.43a1.81,1.81,0,0,1,2.54-2.53l.13.11Zm1.37-2.75a1.56,1.56,0,0,0-1.08.47,1.43,1.43,0,0,0-.26,1.82L42.22,39A1.37,1.37,0,0,0,41.49,38.81Z" transform="translate(0 0)"></path>
<path class="purple" d="M19.92,42.75H19V40a1.17,1.17,0,0,0-.35-.86,1,1,0,0,0-.82-.36,1.19,1.19,0,0,0-.87.37,1.14,1.14,0,0,0-.38.85v2.75h-.91V38h.91v.27a2.12,2.12,0,0,1,1.25-.36,2,2,0,0,1,1.48.61,2,2,0,0,1,.6,1.48Zm-.61-.3h.31V40a1.73,1.73,0,0,0-.51-1.27,1.7,1.7,0,0,0-1.27-.52,1.65,1.65,0,0,0-1.29.5l-.26.28V38.3H16v4.15h.31V40a1.47,1.47,0,0,1,.47-1.07,1.51,1.51,0,0,1,1.08-.45,1.39,1.39,0,0,1,1,.45A1.49,1.49,0,0,1,19.31,40Z" transform="translate(0 0)"></path>
<path class="purple" d="M48.68,42.75h-.91V40a1.19,1.19,0,0,0-.35-.86,1,1,0,0,0-.82-.36,1.19,1.19,0,0,0-.87.37,1.14,1.14,0,0,0-.38.85v2.75h-.91V38h.91v.27a2.12,2.12,0,0,1,1.25-.36,2,2,0,0,1,1.48.61,2,2,0,0,1,.6,1.48Zm-.61-.3h.31V40a1.73,1.73,0,0,0-.51-1.27,1.7,1.7,0,0,0-1.27-.52,1.65,1.65,0,0,0-1.29.5l-.26.28V38.3h-.31v4.15h.31V40a1.47,1.47,0,0,1,.47-1.07,1.51,1.51,0,0,1,1.08-.45,1.39,1.39,0,0,1,1,.45A1.5,1.5,0,0,1,48.07,40Z" transform="translate(0 0)"></path>
<path class="purple" d="M21.51,37.64a.55.55,0,1,1,.57-.55A.52.52,0,0,1,21.51,37.64Zm0-.8c-.18,0-.27.08-.27.25s.09.25.27.25.27-.08.27-.25S21.69,36.84,21.51,36.84Z" transform="translate(0 0)"></path>
<path class="purple" d="M22,42.75h-.91V38H22Zm-.61-.3h.31V38.3h-.31Z" transform="translate(0 0)"></path>
<path class="purple" d="M28.82,42.79H27.71l5.47-7.34h1.13Zm-.51-.3h.36l5-6.74h-.38Z" transform="translate(0 0)"></path>
<path class="purple" d="M35.66,42.83a2.39,2.39,0,0,1-1.73-.76,2.4,2.4,0,0,1,0-3.41,2.38,2.38,0,0,1,1.73-.75,2.47,2.47,0,0,1,1.23.37,2,2,0,0,1,.28.19V35.36h.92v7.39h-.92v-.5l-.31.21A2.4,2.4,0,0,1,35.66,42.83Zm0-4.62a2.06,2.06,0,0,0-1.51.66,2.09,2.09,0,0,0,0,3,2.1,2.1,0,0,0,1.51.67,2.16,2.16,0,0,0,1.05-.33,2.26,2.26,0,0,0,.51-.4l.26-.28v.93h.31V35.66h-.31V39.2l-.27-.28a1.74,1.74,0,0,0-.47-.38A2.2,2.2,0,0,0,35.66,38.21Zm0,4a1.75,1.75,0,0,1-1.28-.58h0a1.83,1.83,0,0,1,0-2.6,1.76,1.76,0,0,1,1.28-.59,1.93,1.93,0,0,1,1.84,1.89,1.78,1.78,0,0,1-.54,1.3A1.81,1.81,0,0,1,35.65,42.25Zm0-3.47a1.49,1.49,0,0,0-1.07.5,1.55,1.55,0,0,0,0,2.18h0a1.41,1.41,0,0,0,2.15,0,1.44,1.44,0,0,0,.46-1.08,1.65,1.65,0,0,0-1.54-1.59Z" transform="translate(0 0)"></path>
</svg>