<?xml version="1.0" encoding="UTF-8"?>
<svg xmlns="http://www.w3.org/2000/svg" viewBox="0 0 243.72 41.71">
<defs>
    <style>.orange{fill:#ff9200;}.white{fill:#fff;}</style>
</defs>
    <polygon class="orange" points="114.26 11.73 108.18 11.73 108.18 5.64 106.38 5.64 106.38 11.73 100.29 11.73 100.29 13.53 106.38 13.53 106.38 19.62 108.18 19.62 108.18 13.53 114.26 13.53 114.26 11.73"></polygon>
    <polygon class="orange" points="55.87 11.73 49.78 11.73 49.78 5.64 47.98 5.64 47.98 11.73 41.9 11.73 41.9 13.53 47.98 13.53 47.98 19.62 49.78 19.62 49.78 13.53 55.87 13.53 55.87 11.73"></polygon>
    <path class="white" d="M85.48.58H70.69c-.39,3.69-.88,7.63-1.66,13C75.1,17.34,77,24.68,77,24.68h.44V13.12a2,2,0,1,1,1.39,0V24.68h.43s1.86-7.34,7.93-11.12C86.23,8,85.72,4.05,85.48.58"></path>
    <path class="white" d="M73.94,35.72a2.15,2.15,0,0,1,.82.82,2.55,2.55,0,0,1,.29,1.21A2.52,2.52,0,0,1,74.76,39a2.13,2.13,0,0,1-.81.82,2.42,2.42,0,0,1-1.17.29,2.2,2.2,0,0,1-1-.23,1.88,1.88,0,0,1-.73-.67v2.54h-.62V35.47H71v.9a1.93,1.93,0,0,1,.73-.69,2.21,2.21,0,0,1,1-.25A2.35,2.35,0,0,1,73.94,35.72ZM73.6,39.3a1.51,1.51,0,0,0,.62-.63,2.05,2.05,0,0,0,0-1.85,1.68,1.68,0,0,0-.62-.62,1.7,1.7,0,0,0-2.34.62,2.05,2.05,0,0,0,0,1.85,1.49,1.49,0,0,0,.61.63,1.81,1.81,0,0,0,1.73,0Z"></path>
    <path class="white" d="M79,39.37a1.6,1.6,0,0,0,.61-.44l.35.39a1.9,1.9,0,0,1-.75.56,2.51,2.51,0,0,1-1,.19,2.57,2.57,0,0,1-1.25-.3,2.12,2.12,0,0,1-.85-.83,2.36,2.36,0,0,1-.3-1.19,2.48,2.48,0,0,1,.29-1.2,2.1,2.1,0,0,1,.8-.82,2.35,2.35,0,0,1,2.26,0,2.21,2.21,0,0,1,.78.77,2.47,2.47,0,0,1,.31,1.13l-3.75.73a1.65,1.65,0,0,0,.63.87,1.86,1.86,0,0,0,1.09.31A2,2,0,0,0,79,39.37Zm-1.79-3.19a1.6,1.6,0,0,0-.59.62,1.87,1.87,0,0,0-.21.9.92.92,0,0,0,0,.19l3.21-.62a1.62,1.62,0,0,0-.53-.94,1.56,1.56,0,0,0-1-.37A1.71,1.71,0,0,0,77.25,36.18Z"></path>
    <path class="white" d="M85.23,35.93a1.94,1.94,0,0,1,.51,1.45V40h-.62V37.44a1.54,1.54,0,0,0-.35-1.08,1.35,1.35,0,0,0-1-.37,1.51,1.51,0,0,0-1.16.44,1.62,1.62,0,0,0-.43,1.2V40h-.62V35.47h.59v.84a1.76,1.76,0,0,1,.7-.65,2.26,2.26,0,0,1,1-.23A1.88,1.88,0,0,1,85.23,35.93Z"></path>
    <path class="white" d="M7,35.88a2,2,0,0,1,.49,1.46V40H6.91V37.4a1.54,1.54,0,0,0-.35-1.08,1.23,1.23,0,0,0-1-.38,1.45,1.45,0,0,0-1.12.44,1.72,1.72,0,0,0-.41,1.21V40H3.46V37.4a1.59,1.59,0,0,0-.34-1.08,1.27,1.27,0,0,0-1-.38A1.45,1.45,0,0,0,1,36.38a1.68,1.68,0,0,0-.41,1.21V40H0V35.42H.59v.84a1.7,1.7,0,0,1,.68-.65,2.22,2.22,0,0,1,1-.22,2,2,0,0,1,1,.24,1.49,1.49,0,0,1,.63.72,1.76,1.76,0,0,1,.73-.7,2.2,2.2,0,0,1,1.07-.26A1.79,1.79,0,0,1,7,35.88Z"></path>
    <path class="white" d="M9.87,39.73A2.2,2.2,0,0,1,9,38.9a2.46,2.46,0,0,1,0-2.39,2.2,2.2,0,0,1,.83-.83,2.47,2.47,0,0,1,1.19-.29,2.43,2.43,0,0,1,1.18.29,2.14,2.14,0,0,1,.83.83,2.53,2.53,0,0,1,0,2.39,2.14,2.14,0,0,1-.83.83,2.33,2.33,0,0,1-1.18.3A2.36,2.36,0,0,1,9.87,39.73Zm2.06-.47a1.65,1.65,0,0,0,.6-.63,2.05,2.05,0,0,0,0-1.85,1.59,1.59,0,0,0-.6-.63,1.71,1.71,0,0,0-.87-.22,1.66,1.66,0,0,0-.87.22,1.54,1.54,0,0,0-.61.63,2.05,2.05,0,0,0,0,1.85,1.61,1.61,0,0,0,.61.63,1.66,1.66,0,0,0,.87.22A1.71,1.71,0,0,0,11.93,39.26Z"></path>
    <path class="white" d="M18.73,35.42V40h-.59v-.83a1.72,1.72,0,0,1-.66.65,2.07,2.07,0,0,1-1,.23,1.94,1.94,0,0,1-1.41-.5,1.92,1.92,0,0,1-.52-1.46V35.42h.62V38a1.55,1.55,0,0,0,.35,1.09,1.35,1.35,0,0,0,1,.37A1.49,1.49,0,0,0,17.7,39a1.66,1.66,0,0,0,.42-1.21v-2.4Z"></path>
    <path class="white" d="M20.62,39.86a2.16,2.16,0,0,1-.79-.4L20.1,39a2.43,2.43,0,0,0,.72.37,3,3,0,0,0,.9.14,1.74,1.74,0,0,0,.93-.2.63.63,0,0,0,.29-.55.48.48,0,0,0-.16-.39,1.05,1.05,0,0,0-.42-.22A6.56,6.56,0,0,0,21.7,38a8.85,8.85,0,0,1-.9-.21,1.44,1.44,0,0,1-.57-.37,1,1,0,0,1-.24-.72,1.14,1.14,0,0,1,.48-.94,2.14,2.14,0,0,1,1.32-.36,3.41,3.41,0,0,1,.89.12,2.4,2.4,0,0,1,.72.3l-.27.5a2.28,2.28,0,0,0-1.34-.39,1.56,1.56,0,0,0-.89.21.62.62,0,0,0-.3.54.56.56,0,0,0,.17.42,1.22,1.22,0,0,0,.42.23,6.17,6.17,0,0,0,.7.15,8,8,0,0,1,.87.21,1.3,1.3,0,0,1,.57.35,1,1,0,0,1,.23.7,1.1,1.1,0,0,1-.5.94,2.31,2.31,0,0,1-1.38.36A3.41,3.41,0,0,1,20.62,39.86Z"></path>
    <path class="white" d="M27.43,39.33a1.59,1.59,0,0,0,.61-.45l.35.4a2,2,0,0,1-.76.55,2.47,2.47,0,0,1-1,.2,2.54,2.54,0,0,1-1.25-.3,2.12,2.12,0,0,1-.85-.83,2.57,2.57,0,0,1,0-2.39,2.13,2.13,0,0,1,.8-.83,2.32,2.32,0,0,1,1.16-.29,2.11,2.11,0,0,1,1.09.28,2,2,0,0,1,.78.77,2.21,2.21,0,0,1,.31,1.12l-3.74.73a1.55,1.55,0,0,0,.63.87,1.84,1.84,0,0,0,1.08.32A2,2,0,0,0,27.43,39.33Zm-1.8-3.19a1.55,1.55,0,0,0-.58.61,1.83,1.83,0,0,0-.22.91c0,.09,0,.15,0,.19l3.22-.62a1.59,1.59,0,0,0-.53-.94,1.51,1.51,0,0,0-1-.37A1.67,1.67,0,0,0,25.63,36.14Z"></path>
    <polygon class="white" points="127.16 12.04 127.16 13.13 137.09 19 137.28 19.11 137.28 17.56 128.86 12.58 137.28 7.64 137.28 6.15 127.22 12 127.16 12.04"></polygon>
    <polygon class="white" points="138.47 24.35 138.33 24.55 139.8 24.55 157.47 0.91 157.62 0.71 156.08 0.71 138.47 24.35"></polygon>
    <polygon class="white" points="160.4 6.15 160.4 7.64 168.82 12.58 160.46 17.52 160.4 17.56 160.4 19.11 170.46 13.16 170.52 13.13 170.52 12.07 160.4 6.15"></polygon>
    <path class="white" d="M139.67,39.77a2.1,2.1,0,0,1-.84-.83,2.55,2.55,0,0,1,0-2.4,2.14,2.14,0,0,1,.84-.82,2.41,2.41,0,0,1,1.21-.29,2.25,2.25,0,0,1,1.05.23,1.69,1.69,0,0,1,.73.67l-.46.31a1.47,1.47,0,0,0-.57-.51,1.72,1.72,0,0,0-.75-.17,1.86,1.86,0,0,0-.89.22,1.57,1.57,0,0,0-.62.63,2.08,2.08,0,0,0,0,1.86,1.57,1.57,0,0,0,.62.63,1.86,1.86,0,0,0,.89.22,1.72,1.72,0,0,0,.75-.17,1.44,1.44,0,0,0,.57-.5l.46.31a1.66,1.66,0,0,1-.74.67,2.24,2.24,0,0,1-1,.23A2.52,2.52,0,0,1,139.67,39.77Z"></path>
    <path class="white" d="M144.54,39.76a2.18,2.18,0,0,1-.83-.82,2.55,2.55,0,0,1,0-2.4,2.18,2.18,0,0,1,.83-.82,2.36,2.36,0,0,1,1.19-.29,2.38,2.38,0,0,1,1.19.29,2.15,2.15,0,0,1,.82.82,2.55,2.55,0,0,1,0,2.4,2.15,2.15,0,0,1-.82.82,2.39,2.39,0,0,1-1.19.3A2.36,2.36,0,0,1,144.54,39.76Zm2.06-.46a1.52,1.52,0,0,0,.6-.63,2.08,2.08,0,0,0,0-1.86,1.52,1.52,0,0,0-.6-.63,1.81,1.81,0,0,0-.87-.22,1.75,1.75,0,0,0-.87.22,1.61,1.61,0,0,0-.61.63,2.08,2.08,0,0,0,0,1.86,1.61,1.61,0,0,0,.61.63,1.75,1.75,0,0,0,.87.22A1.81,1.81,0,0,0,146.6,39.3Z"></path>
    <path class="white" d="M153.46,33.59V40h-.59v-.9a1.91,1.91,0,0,1-.74.7,2.13,2.13,0,0,1-1,.24,2.35,2.35,0,0,1-1.16-.29,2.11,2.11,0,0,1-.82-.83,2.63,2.63,0,0,1,0-2.4,2,2,0,0,1,.82-.82,2.25,2.25,0,0,1,1.16-.29,2.08,2.08,0,0,1,1,.23,1.8,1.8,0,0,1,.73.67V33.59ZM152,39.3a1.61,1.61,0,0,0,.61-.63,2.08,2.08,0,0,0,0-1.86,1.61,1.61,0,0,0-.61-.63,1.74,1.74,0,0,0-.86-.22,1.81,1.81,0,0,0-.87.22,1.61,1.61,0,0,0-.61.63,2.08,2.08,0,0,0,0,1.86,1.61,1.61,0,0,0,.61.63,1.81,1.81,0,0,0,.87.22A1.74,1.74,0,0,0,152,39.3Z"></path>
    <path class="white" d="M157.91,39.36a1.57,1.57,0,0,0,.61-.44l.34.4a2,2,0,0,1-.75.55,2.48,2.48,0,0,1-1,.19,2.53,2.53,0,0,1-1.24-.3,2.1,2.1,0,0,1-.85-.82,2.33,2.33,0,0,1-.31-1.2,2.53,2.53,0,0,1,.29-1.2,2.17,2.17,0,0,1,.8-.82,2.28,2.28,0,0,1,1.17-.29,2.2,2.2,0,0,1,1.09.27,2.09,2.09,0,0,1,.78.78,2.18,2.18,0,0,1,.31,1.12l-3.74.73a1.55,1.55,0,0,0,.63.87,1.84,1.84,0,0,0,1.08.32A1.89,1.89,0,0,0,157.91,39.36Zm-1.8-3.18a1.57,1.57,0,0,0-.59.61,1.91,1.91,0,0,0-.21.91,1,1,0,0,0,0,.19l3.22-.63a1.67,1.67,0,0,0-.53-.94,1.57,1.57,0,0,0-1-.36A1.64,1.64,0,0,0,156.11,36.18Z"></path>
    <path class="white" d="M196.5,34H199a3.58,3.58,0,0,1,1.7.39,2.8,2.8,0,0,1,1.14,1.07,3,3,0,0,1,.41,1.58,2.94,2.94,0,0,1-.41,1.57,2.74,2.74,0,0,1-1.14,1.07A3.58,3.58,0,0,1,199,40H196.5Zm2.44,5.51a2.94,2.94,0,0,0,1.39-.31,2.26,2.26,0,0,0,.93-.88,2.67,2.67,0,0,0,0-2.57,2.39,2.39,0,0,0-.93-.88,2.94,2.94,0,0,0-1.39-.31h-1.8v5Z"></path>
    <path class="white" d="M206.26,39.36a1.5,1.5,0,0,0,.61-.44l.35.4a2,2,0,0,1-.75.55,2.51,2.51,0,0,1-1,.19,2.57,2.57,0,0,1-1.25-.3,2.23,2.23,0,0,1-.85-.82,2.43,2.43,0,0,1-.3-1.2,2.53,2.53,0,0,1,.29-1.2,2.1,2.1,0,0,1,.8-.82,2.42,2.42,0,0,1,2.26,0,2.09,2.09,0,0,1,.78.78,2.28,2.28,0,0,1,.31,1.12l-3.75.73a1.65,1.65,0,0,0,.63.87,1.89,1.89,0,0,0,1.09.32A1.85,1.85,0,0,0,206.26,39.36Zm-1.79-3.18a1.51,1.51,0,0,0-.59.61,1.91,1.91,0,0,0-.21.91,1,1,0,0,0,0,.19l3.21-.63a1.57,1.57,0,0,0-.53-.94,1.55,1.55,0,0,0-1-.36A1.63,1.63,0,0,0,204.47,36.18Z"></path>
    <path class="white" d="M212.45,35.92a2,2,0,0,1,.51,1.46V40h-.62V37.44a1.55,1.55,0,0,0-.35-1.09,1.38,1.38,0,0,0-1-.37,1.54,1.54,0,0,0-1.16.44,1.63,1.63,0,0,0-.43,1.21V40h-.62V35.46h.59v.84a1.67,1.67,0,0,1,.7-.64,2.16,2.16,0,0,1,1-.23A1.86,1.86,0,0,1,212.45,35.92Z"></path>
    <path class="white" d="M214.62,34.33a.4.4,0,0,1-.13-.31.41.41,0,0,1,.13-.3.46.46,0,0,1,.64,0,.37.37,0,0,1,.13.29.41.41,0,0,1-.13.32.46.46,0,0,1-.64,0Zm0,1.13h.61V40h-.61Z"></path>
    <path class="white" d="M219.69,39.36a1.5,1.5,0,0,0,.61-.44l.35.4a2,2,0,0,1-.75.55,2.51,2.51,0,0,1-1,.19,2.57,2.57,0,0,1-1.25-.3,2.23,2.23,0,0,1-.85-.82,2.43,2.43,0,0,1-.3-1.2,2.53,2.53,0,0,1,.29-1.2,2.1,2.1,0,0,1,.8-.82,2.42,2.42,0,0,1,2.26,0,2.09,2.09,0,0,1,.78.78,2.28,2.28,0,0,1,.31,1.12l-3.75.73a1.65,1.65,0,0,0,.63.87,1.89,1.89,0,0,0,1.09.32A1.85,1.85,0,0,0,219.69,39.36Zm-1.79-3.18a1.51,1.51,0,0,0-.59.61,1.91,1.91,0,0,0-.21.91,1,1,0,0,0,0,.19l3.21-.63a1.57,1.57,0,0,0-.53-.94,1.55,1.55,0,0,0-1-.36A1.63,1.63,0,0,0,217.9,36.18Z"></path>
    <path class="white" d="M222.53,39.72a1.34,1.34,0,0,1-.34-1V33.59h.62V38.7a.89.89,0,0,0,.19.62.74.74,0,0,0,.57.21,1.09,1.09,0,0,0,.42-.07l0,.51a1.71,1.71,0,0,1-.55.09A1.24,1.24,0,0,1,222.53,39.72Z"></path>
    <path class="white" d="M227.27,34h2.47a3.58,3.58,0,0,1,1.7.39,2.8,2.8,0,0,1,1.14,1.07A3.07,3.07,0,0,1,233,37a3,3,0,0,1-.41,1.57,2.74,2.74,0,0,1-1.14,1.07,3.58,3.58,0,0,1-1.7.39h-2.47Zm2.44,5.51a2.94,2.94,0,0,0,1.39-.31,2.26,2.26,0,0,0,.93-.88,2.67,2.67,0,0,0,0-2.57,2.39,2.39,0,0,0-.93-.88,2.94,2.94,0,0,0-1.39-.31h-1.8v5Z"></path>
    <path class="white" d="M237,39.36a1.57,1.57,0,0,0,.61-.44l.35.4a1.94,1.94,0,0,1-.76.55,2.46,2.46,0,0,1-1,.19,2.54,2.54,0,0,1-1.25-.3,2.16,2.16,0,0,1-.85-.82,2.59,2.59,0,0,1,0-2.4,2.1,2.1,0,0,1,.8-.82,2.2,2.2,0,0,1,3,.76,2.28,2.28,0,0,1,.3,1.12l-3.74.73a1.65,1.65,0,0,0,.63.87,1.87,1.87,0,0,0,1.09.32A1.85,1.85,0,0,0,237,39.36Zm-1.79-3.18a1.51,1.51,0,0,0-.59.61,1.91,1.91,0,0,0-.21.91v.19l3.22-.63a1.62,1.62,0,0,0-.53-.94,1.55,1.55,0,0,0-1-.36A1.61,1.61,0,0,0,235.24,36.18Z"></path>
    <path class="white" d="M243.22,35.92a2,2,0,0,1,.5,1.46V40h-.61V37.44a1.51,1.51,0,0,0-.36-1.09,1.34,1.34,0,0,0-1-.37,1.54,1.54,0,0,0-1.16.44,1.63,1.63,0,0,0-.43,1.21V40h-.62V35.46h.59v.84a1.67,1.67,0,0,1,.7-.64,2.14,2.14,0,0,1,1-.23A1.87,1.87,0,0,1,243.22,35.92Z"></path>
    <path class="white" d="M12.83,5.54v4.67a1.51,1.51,0,1,0,3,0V5.54a1.51,1.51,0,1,0-3,0"></path>
    <path class="white" d="M21.87,8.1c-.3-2.66-.62-4.87-1-6.92A23.68,23.68,0,0,0,15,0h0V2.66a2.27,2.27,0,0,1,1.85,2.16v6a2.34,2.34,0,0,1-2.45,2.23,2.35,2.35,0,0,1-2.46-2.23v-6a2.27,2.27,0,0,1,1.86-2.16V0h0A23.66,23.66,0,0,0,7.81,1.18L7.63,2.29a100.09,100.09,0,0,0-1.8,14c0,5.52,3.81,9,8.51,9s8.51-3.48,8.51-9C22.85,15.48,22.39,11.76,21.87,8.1Z"></path>
    <path class="white" d="M231.67,4.66a10.72,10.72,0,0,0-8.17-3.33h-1.08v22.6h1.08a10.68,10.68,0,0,0,8.18-3.32,11.33,11.33,0,0,0,3.09-8A11.39,11.39,0,0,0,231.67,4.66Zm-.89,15.13a9.2,9.2,0,0,1-7.05,3h-.11V2.47h.11a9.16,9.16,0,0,1,7.05,3,10.29,10.29,0,0,1,2.75,7.17A10.19,10.19,0,0,1,230.78,19.79Z"></path>
    <path class="white" d="M208.56,4.66a11.35,11.35,0,0,0-3.1,8,11.33,11.33,0,0,0,3.09,8,10.66,10.66,0,0,0,8.18,3.32h1.08V1.33h-1.08A10.69,10.69,0,0,0,208.56,4.66Zm8.05,18.1h-.12a9.2,9.2,0,0,1-7-3,10.2,10.2,0,0,1-2.76-7.15,10.3,10.3,0,0,1,2.76-7.17,9.15,9.15,0,0,1,7-3h.12Z"></path>
</svg>
