<?xml version="1.0" encoding="UTF-8"?>
<svg xmlns="http://www.w3.org/2000/svg" viewBox="0 0 77.98 57.67">
<defs>
    <style>.white{fill:#fff;}.orange{fill:#ff9200;}.d-none{display:none;}.opacity-0 {opacity: 0;transition: opacity .5s ease-in;}</style>
</defs>
<path id="logo" class="white" d="M54.51,56.89,76.07,35.48,68.9,3.87c-7.06-2.26-10-2.78-14.35-3.05L53.07,15.49l-.34,0A3.71,3.71,0,0,0,49,19.17V30.3a3.7,3.7,0,0,0,2.21,3.39L49.31,52.6,31.47,34.87,38.16,5.36c6.75-2,8.37-2.28,12.77-2.61V.8c-4.74.29-7.4.86-14.39,3.07L29.38,35.48,50.85,56.85,53.15,34a3.69,3.69,0,0,0,3.29-3.67V19.17a3.72,3.72,0,0,0-1.5-3L56.29,2.85c2.92.25,5.27.74,11,2.51L74,34.87,54.51,54.23Z"></path>
<g id="grid">
    <path class="orange" d="M16.29,57.24a.37.37,0,0,1-.37-.38V.5a.36.36,0,0,1,.37-.37.37.37,0,0,1,.38.37V56.86A.38.38,0,0,1,16.29,57.24Z"></path>
    <path class="orange" d="M24.17,35.42a.37.37,0,0,1-.37-.37V.72a.38.38,0,1,1,.75,0V35.05A.37.37,0,0,1,24.17,35.42Z"></path>
    <path class="orange" d="M77.6,57.57h-3a.38.38,0,0,1,0-.75h3a.38.38,0,1,1,0,.75Zm-7,0h-3a.38.38,0,0,1,0-.75h3a.38.38,0,1,1,0,.75Zm-7,0h-3a.38.38,0,0,1,0-.75h3a.38.38,0,1,1,0,.75Zm-7,0h-3a.38.38,0,0,1,0-.75h3a.38.38,0,1,1,0,.75Zm-7,0h-3a.38.38,0,0,1,0-.75h3a.38.38,0,1,1,0,.75Zm-7,0h-3a.38.38,0,0,1,0-.75h3a.38.38,0,1,1,0,.75Zm-7,0h-3a.38.38,0,0,1,0-.75h3a.38.38,0,1,1,0,.75Zm-7,0h-3a.38.38,0,0,1,0-.75h3a.38.38,0,1,1,0,.75Z"></path>
    <path class="orange" d="M77.6.88h-3A.38.38,0,0,1,74.23.5.37.37,0,0,1,74.6.13h3A.37.37,0,0,1,78,.5.38.38,0,0,1,77.6.88Zm-7,0h-3A.38.38,0,0,1,67.23.5.37.37,0,0,1,67.6.13h3A.37.37,0,0,1,71,.5.38.38,0,0,1,70.6.88Zm-7,0h-3A.38.38,0,0,1,60.23.5.37.37,0,0,1,60.6.13h3A.37.37,0,0,1,64,.5.38.38,0,0,1,63.6.88Zm-7,0h-3A.38.38,0,0,1,53.23.5.37.37,0,0,1,53.6.13h3A.37.37,0,0,1,57,.5.38.38,0,0,1,56.6.88Zm-7,0h-3A.38.38,0,0,1,46.23.5.37.37,0,0,1,46.6.13h3A.37.37,0,0,1,50,.5.38.38,0,0,1,49.6.88Zm-7,0h-3A.38.38,0,0,1,39.23.5.37.37,0,0,1,39.6.13h3A.37.37,0,0,1,43,.5.38.38,0,0,1,42.6.88Zm-7,0h-3A.38.38,0,0,1,32.23.5.37.37,0,0,1,32.6.13h3A.37.37,0,0,1,36,.5.38.38,0,0,1,35.6.88Zm-7,0h-3A.38.38,0,0,1,25.23.5.37.37,0,0,1,25.6.13h3A.37.37,0,0,1,29,.5.38.38,0,0,1,28.6.88Z"></path>
    <path class="orange" d="M77.6,35.94h-3a.38.38,0,0,1-.37-.38.37.37,0,0,1,.37-.37h3a.37.37,0,0,1,.38.37A.38.38,0,0,1,77.6,35.94Zm-7,0h-3a.38.38,0,0,1-.37-.38.37.37,0,0,1,.37-.37h3a.37.37,0,0,1,.38.37A.38.38,0,0,1,70.6,35.94Zm-7,0h-3a.38.38,0,0,1-.37-.38.37.37,0,0,1,.37-.37h3a.37.37,0,0,1,.38.37A.38.38,0,0,1,63.6,35.94Zm-7,0h-3a.38.38,0,0,1-.37-.38.37.37,0,0,1,.37-.37h3a.37.37,0,0,1,.38.37A.38.38,0,0,1,56.6,35.94Zm-7,0h-3a.38.38,0,0,1-.37-.38.37.37,0,0,1,.37-.37h3a.37.37,0,0,1,.38.37A.38.38,0,0,1,49.6,35.94Zm-7,0h-3a.38.38,0,0,1-.37-.38.37.37,0,0,1,.37-.37h3a.37.37,0,0,1,.38.37A.38.38,0,0,1,42.6,35.94Zm-7,0h-3a.38.38,0,0,1-.37-.38.37.37,0,0,1,.37-.37h3a.37.37,0,0,1,.38.37A.38.38,0,0,1,35.6,35.94Zm-7,0h-3a.38.38,0,0,1-.37-.38.37.37,0,0,1,.37-.37h3a.37.37,0,0,1,.38.37A.38.38,0,0,1,28.6,35.94Z"></path>
    <path class="white" d="M21.73,15.59v4.58h-.48V16H20.17v-.42Z"></path>
    <path class="white" d="M1.55,15.54v4.57H1.08V16H0v-.41Z"></path>
    <path class="white" d="M3.25,19.54a.32.32,0,0,1,.1.25,1.11,1.11,0,0,1,0,.17l-.07.21-.28.9H2.67l.22-.95A.3.3,0,0,1,2.72,20a.37.37,0,0,1-.06-.21.35.35,0,0,1,.09-.25A.34.34,0,0,1,3,19.43.33.33,0,0,1,3.25,19.54Z"></path>
    <path class="white" d="M6.73,17.54a1.35,1.35,0,0,1,.54.49,1.29,1.29,0,0,1,.2.72,1.41,1.41,0,0,1-.2.74,1.33,1.33,0,0,1-.56.49,1.77,1.77,0,0,1-.8.17,1.73,1.73,0,0,1-1.4-.59A2.67,2.67,0,0,1,4,17.86a2.93,2.93,0,0,1,.26-1.29,1.89,1.89,0,0,1,.73-.8,2.19,2.19,0,0,1,1.1-.27,2,2,0,0,1,1.09.25L7,16.12a1.65,1.65,0,0,0-.89-.21,1.52,1.52,0,0,0-1.19.48,2,2,0,0,0-.43,1.4,2.49,2.49,0,0,0,0,.37,1.21,1.21,0,0,1,.54-.58,1.71,1.71,0,0,1,.86-.21A1.88,1.88,0,0,1,6.73,17.54Zm0,1.94A1,1,0,0,0,6.7,18a1.26,1.26,0,0,0-.85-.27,1.48,1.48,0,0,0-.61.13,1.1,1.1,0,0,0-.41.36,1,1,0,0,0-.15.51.85.85,0,0,0,.14.49,1,1,0,0,0,.41.36,1.49,1.49,0,0,0,.66.14A1.21,1.21,0,0,0,6.7,19.48Z"></path>
    <path class="white" d="M9.28,15.54v4.57H8.81V16H7.73v-.41Z"></path>
    <path class="white" d="M13.66,18.15a1,1,0,0,1,.23.69,1.18,1.18,0,0,1-.21.7,1.39,1.39,0,0,1-.62.45,2.49,2.49,0,0,1-1,.16,2.06,2.06,0,0,1-1.29-.35,1.12,1.12,0,0,1-.47-1,1.09,1.09,0,0,1,.22-.7,1.39,1.39,0,0,1,.66-.43,1.22,1.22,0,0,1-.54-.39,1,1,0,0,1-.18-.61,1.07,1.07,0,0,1,.44-.89,1.94,1.94,0,0,1,1.16-.32,2.4,2.4,0,0,1,.85.14,1.31,1.31,0,0,1,.57.43,1.06,1.06,0,0,1,.2.64,1,1,0,0,1-.19.61,1.22,1.22,0,0,1-.54.39A1.33,1.33,0,0,1,13.66,18.15Zm-.59,1.36a.84.84,0,0,0,0-1.35,1.66,1.66,0,0,0-1-.24,1.61,1.61,0,0,0-.94.24.84.84,0,0,0,0,1.35,1.59,1.59,0,0,0,.94.25A1.66,1.66,0,0,0,13.07,19.51Zm-1.79-2.19a1.36,1.36,0,0,0,.83.22,1.38,1.38,0,0,0,.84-.22.7.7,0,0,0,.3-.59.7.7,0,0,0-.31-.61,1.38,1.38,0,0,0-.83-.22,1.35,1.35,0,0,0-.82.22.7.7,0,0,0-.31.6A.71.71,0,0,0,11.28,17.32Z"></path>
    <path class="orange" d="M56.81,57.67a22,22,0,0,1-22-22A35.54,35.54,0,0,1,70.13,0a.5.5,0,0,1,0,1A34.54,34.54,0,0,0,35.82,35.69a21,21,0,0,0,21,21A12.83,12.83,0,0,0,69.63,43.85,7.6,7.6,0,0,0,62,36.09a4.77,4.77,0,0,0-4.78,4.62,2.68,2.68,0,0,0,2.67,2.68,1.47,1.47,0,0,0,1.47-1.47.72.72,0,0,0-.72-.72.26.26,0,0,0-.26.26.5.5,0,0,1-.5.5.51.51,0,0,1-.5-.5,1.26,1.26,0,0,1,1.26-1.26,1.72,1.72,0,0,1,1.72,1.72,2.48,2.48,0,0,1-2.47,2.47,3.68,3.68,0,0,1-3.67-3.68A5.78,5.78,0,0,1,62,35.09a8.59,8.59,0,0,1,8.6,8.76A13.84,13.84,0,0,1,56.81,57.67Z"></path>
</g>
</svg>