<?xml version="1.0" encoding="UTF-8"?>
<svg xmlns="http://www.w3.org/2000/svg" viewBox="0 0 121.56 58.3">
<defs>
    <style>.white{fill:#fff;}.orange{fill:#ff9200;}.d-none{display:none;}.opacity-0 {opacity: 0;transition: opacity .5s ease-in;}</style>
</defs>
<g id="logo">
    <path class="white" d="M27.42,46.16l13.07-13L36.14,14a30.9,30.9,0,0,0-8.7-1.84L26.54,21h-.2a2.26,2.26,0,0,0-2.26,2.25V30a2.27,2.27,0,0,0,1.34,2.06L24.26,43.55,13.45,32.81l4.05-17.9a27.85,27.85,0,0,1,7.75-1.58V12.14A30.84,30.84,0,0,0,16.53,14L12.18,33.17l13,13,1.39-13.86a2.25,2.25,0,0,0,2-2.24V23.28a2.25,2.25,0,0,0-.91-1.8l.81-8.09a29,29,0,0,1,6.68,1.52l4,17.9L27.42,44.54Z"></path>
    <polygon class="white" points="48.54 30.62 52.26 32.82 52.26 32.01 49.48 30.37 52.26 28.74 52.26 27.95 48.54 30.11 48.54 30.62"></polygon>
    <polygon class="white" points="105.63 27.99 105.63 28.78 108.41 30.41 105.63 32.05 105.63 32.86 109.35 30.66 109.35 30.15 105.63 27.99"></polygon>
    <path class="white" d="M58.22,28.6a2.49,2.49,0,0,0-.59-.47,2.71,2.71,0,0,0-1.32-.41,2.59,2.59,0,0,0-1.87.82,2.6,2.6,0,0,0,0,3.69,2.58,2.58,0,0,0,1.87.81,2.62,2.62,0,0,0,1.29-.4,2.53,2.53,0,0,0,.62-.49V33h.7V24.79h-.7Zm-3.28,3.16a1.93,1.93,0,1,1,3.3-1.37,1.86,1.86,0,0,1-.58,1.37,1.91,1.91,0,0,1-1.37.62,1.87,1.87,0,0,1-1.35-.62"></path>
    <path class="white" d="M64,32.09a1.82,1.82,0,0,1-2-.11l3.14-3.11a2.6,2.6,0,0,0-4.74,1.48A2.68,2.68,0,0,0,65.17,32V30.83A3.31,3.31,0,0,1,64,32.09m.14-3.26L61.45,31.5a1.91,1.91,0,0,1,2.67-2.67"></path>
    <path class="white" d="M78.76,32.09a1.82,1.82,0,0,1-2-.11l3.14-3.11a2.6,2.6,0,0,0-4.74,1.48A2.69,2.69,0,0,0,80,32V30.83a3.24,3.24,0,0,1-1.19,1.26m.14-3.26L76.23,31.5a1.91,1.91,0,0,1,2.67-2.67"></path>
    <path class="white" d="M97.08,32.09A1.82,1.82,0,0,1,95,32l3.14-3.11a2.6,2.6,0,0,0-4.74,1.48A2.68,2.68,0,0,0,98.27,32V30.83a3.31,3.31,0,0,1-1.19,1.26m.14-3.26L94.55,31.5a1.91,1.91,0,0,1,2.67-2.67"></path>
    <path class="white" d="M68.89,27.72a2.08,2.08,0,0,0-1.6.64v-.52h-.7V33h.7V30a1.47,1.47,0,0,1,.48-1.1,1.56,1.56,0,0,1,1.12-.48,1.44,1.44,0,0,1,1.08.47A1.55,1.55,0,0,1,70.41,30v3h.71V30a2.19,2.19,0,0,0-.64-1.58,2.14,2.14,0,0,0-1.59-.66"></path>
    <path class="white" d="M102,27.72a2.08,2.08,0,0,0-1.6.64v-.52h-.7V33h.7V30a1.47,1.47,0,0,1,.48-1.1,1.56,1.56,0,0,1,1.12-.48,1.44,1.44,0,0,1,1.08.47,1.55,1.55,0,0,1,.44,1.11v3h.71V30a2.19,2.19,0,0,0-.64-1.58,2.14,2.14,0,0,0-1.59-.66"></path>
    <path class="white" d="M73.12,26.15a.43.43,0,0,0-.49.46.49.49,0,0,0,1,0,.43.43,0,0,0-.48-.46"></path>
    <rect class="white" x="72.77" y="27.84" width="0.7" height="5.12"></rect>
    <polygon class="white" points="86.63 24.9 80.6 33 81.44 33 87.5 24.9 86.63 24.9"></polygon>
    <path class="white" d="M91.32,28.6a2.49,2.49,0,0,0-.59-.47,2.71,2.71,0,0,0-1.32-.41,2.59,2.59,0,0,0-1.87.82,2.6,2.6,0,0,0,0,3.69,2.58,2.58,0,0,0,1.87.81,2.62,2.62,0,0,0,1.29-.4,2.74,2.74,0,0,0,.62-.49V33H92V24.79h-.7ZM88,31.76a1.93,1.93,0,1,1,3.3-1.37,1.86,1.86,0,0,1-.58,1.37,1.91,1.91,0,0,1-1.37.62A1.87,1.87,0,0,1,88,31.76"></path>
</g>
<g id="grid">
    <path class="orange" d="M109.89,47.13h-1.5a.51.51,0,0,1-.5-.5.5.5,0,0,1,.5-.5h1v-1a.5.5,0,0,1,.5-.5.5.5,0,0,1,.5.5v1.5A.5.5,0,0,1,109.89,47.13Z"></path>
    <path class="orange" d="M104.38,47.13h-3a.5.5,0,0,1-.5-.5.5.5,0,0,1,.5-.5h3a.5.5,0,0,1,.5.5A.5.5,0,0,1,104.38,47.13Zm-7,0h-3a.5.5,0,0,1-.5-.5.5.5,0,0,1,.5-.5h3a.5.5,0,0,1,.5.5A.51.51,0,0,1,97.37,47.13Zm-7,0h-3a.51.51,0,0,1-.5-.5.5.5,0,0,1,.5-.5h3a.5.5,0,0,1,.5.5A.5.5,0,0,1,90.35,47.13Zm-7,0h-3a.5.5,0,0,1-.5-.5.5.5,0,0,1,.5-.5h3a.5.5,0,0,1,.5.5A.5.5,0,0,1,83.33,47.13Zm-7,0h-3a.51.51,0,0,1-.5-.5.5.5,0,0,1,.5-.5h3a.5.5,0,0,1,.5.5A.5.5,0,0,1,76.32,47.13Zm-7,0h-3a.51.51,0,0,1-.5-.5.5.5,0,0,1,.5-.5h3a.5.5,0,0,1,.5.5A.5.5,0,0,1,69.3,47.13Zm-7,0h-3a.5.5,0,0,1-.5-.5.5.5,0,0,1,.5-.5h3a.5.5,0,0,1,.5.5A.51.51,0,0,1,62.29,47.13Zm-7,0h-3a.51.51,0,0,1-.5-.5.5.5,0,0,1,.5-.5h3a.5.5,0,0,1,.5.5A.5.5,0,0,1,55.27,47.13Zm-7,0h-3a.5.5,0,0,1-.5-.5.5.5,0,0,1,.5-.5h3a.5.5,0,0,1,.5.5A.5.5,0,0,1,48.25,47.13Zm-7,0h-3a.5.5,0,0,1-.5-.5.5.5,0,0,1,.5-.5h3a.5.5,0,0,1,.5.5A.51.51,0,0,1,41.24,47.13Zm-7,0h-3a.51.51,0,0,1-.5-.5.5.5,0,0,1,.5-.5h3a.5.5,0,0,1,.5.5A.5.5,0,0,1,34.22,47.13Zm-7,0h-3a.5.5,0,0,1-.5-.5.5.5,0,0,1,.5-.5h3a.5.5,0,0,1,.5.5A.5.5,0,0,1,27.2,47.13Zm-7,0h-3a.5.5,0,0,1-.5-.5.5.5,0,0,1,.5-.5h3a.5.5,0,0,1,.5.5A.51.51,0,0,1,20.19,47.13Z"></path>
    <path class="orange" d="M13.17,47.13h-1.5a.5.5,0,0,1-.5-.5v-1.5a.5.5,0,0,1,1,0v1h1a.5.5,0,0,1,.5.5A.5.5,0,0,1,13.17,47.13Z"></path>
    <path class="orange" d="M11.67,41.63a.5.5,0,0,1-.5-.5v-3a.5.5,0,0,1,1,0v3A.5.5,0,0,1,11.67,41.63Zm0-7a.5.5,0,0,1-.5-.5v-3a.5.5,0,0,1,1,0v3A.5.5,0,0,1,11.67,34.64Zm0-7a.5.5,0,0,1-.5-.5v-3a.5.5,0,0,1,1,0v3A.5.5,0,0,1,11.67,27.65Zm0-7a.5.5,0,0,1-.5-.5v-3a.5.5,0,0,1,1,0v3A.5.5,0,0,1,11.67,20.66Z"></path>
    <path class="orange" d="M11.67,13.67a.5.5,0,0,1-.5-.5v-1.5a.5.5,0,0,1,.5-.5h1.5a.5.5,0,0,1,0,1h-1v1A.5.5,0,0,1,11.67,13.67Z"></path>
    <path class="orange" d="M104.38,12.17h-3a.5.5,0,0,1,0-1h3a.5.5,0,0,1,0,1Zm-7,0h-3a.5.5,0,0,1,0-1h3a.5.5,0,0,1,0,1Zm-7,0h-3a.5.5,0,0,1,0-1h3a.5.5,0,0,1,0,1Zm-7,0h-3a.5.5,0,0,1,0-1h3a.5.5,0,0,1,0,1Zm-7,0h-3a.5.5,0,0,1,0-1h3a.5.5,0,0,1,0,1Zm-7,0h-3a.5.5,0,0,1,0-1h3a.5.5,0,0,1,0,1Zm-7,0h-3a.5.5,0,0,1,0-1h3a.5.5,0,0,1,0,1Zm-7,0h-3a.5.5,0,0,1,0-1h3a.5.5,0,0,1,0,1Zm-7,0h-3a.5.5,0,0,1,0-1h3a.5.5,0,0,1,0,1Zm-7,0h-3a.5.5,0,0,1,0-1h3a.5.5,0,0,1,0,1Zm-7,0h-3a.5.5,0,0,1,0-1h3a.5.5,0,0,1,0,1Zm-7,0h-3a.5.5,0,0,1,0-1h3a.5.5,0,0,1,0,1Zm-7,0h-3a.5.5,0,0,1,0-1h3a.5.5,0,0,1,0,1Z"></path>
    <path class="orange" d="M109.89,13.67a.5.5,0,0,1-.5-.5v-1h-1a.5.5,0,0,1,0-1h1.5a.5.5,0,0,1,.5.5v1.5A.5.5,0,0,1,109.89,13.67Z"></path>
    <path class="orange" d="M109.89,41.63a.5.5,0,0,1-.5-.5v-3a.5.5,0,0,1,.5-.5.5.5,0,0,1,.5.5v3A.5.5,0,0,1,109.89,41.63Zm0-7a.5.5,0,0,1-.5-.5v-3a.5.5,0,0,1,.5-.5.5.5,0,0,1,.5.5v3A.5.5,0,0,1,109.89,34.64Zm0-7a.5.5,0,0,1-.5-.5v-3a.5.5,0,0,1,.5-.5.5.5,0,0,1,.5.5v3A.5.5,0,0,1,109.89,27.65Zm0-7a.5.5,0,0,1-.5-.5v-3a.5.5,0,0,1,.5-.5.5.5,0,0,1,.5.5v3A.5.5,0,0,1,109.89,20.66Z"></path>
    <path class="orange" d="M26.56,33.2H.5a.5.5,0,0,1-.5-.5V20.54A.5.5,0,0,1,.5,20H26.56a.51.51,0,0,1,.5.5.5.5,0,0,1-.5.5H1V32.2H26.56a.51.51,0,0,1,.5.5A.5.5,0,0,1,26.56,33.2Z"></path>
    <path class="orange" d="M121.06,58.3h-1.5a.5.5,0,0,1,0-1h1v-1a.5.5,0,0,1,.5-.5.5.5,0,0,1,.5.5v1.5A.5.5,0,0,1,121.06,58.3Z"></path>
    <path class="orange" d="M115.51,58.3h-3a.5.5,0,0,1,0-1h3a.5.5,0,0,1,0,1Zm-7.09,0h-3a.5.5,0,0,1,0-1h3a.5.5,0,0,1,0,1Zm-7.1,0h-3a.5.5,0,0,1,0-1h3a.5.5,0,0,1,0,1Zm-7.09,0h-3a.5.5,0,0,1,0-1h3a.5.5,0,0,1,0,1Zm-7.1,0h-3a.5.5,0,0,1,0-1h3a.5.5,0,0,1,0,1ZM80,58.3H77a.5.5,0,0,1,0-1h3a.5.5,0,0,1,0,1Zm-7.1,0h-3a.5.5,0,0,1,0-1h3a.5.5,0,0,1,0,1Zm-7.09,0h-3a.5.5,0,0,1,0-1h3a.5.5,0,0,1,0,1Zm-7.1,0h-3a.5.5,0,1,1,0-1h3a.5.5,0,0,1,0,1Zm-7.09,0h-3a.5.5,0,1,1,0-1h3a.5.5,0,0,1,0,1Zm-7.09,0h-3a.5.5,0,0,1,0-1h3a.5.5,0,1,1,0,1Zm-7.1,0h-3a.5.5,0,1,1,0-1h3a.5.5,0,0,1,0,1Zm-7.09,0h-3a.5.5,0,0,1,0-1h3a.5.5,0,0,1,0,1Zm-7.1,0h-3a.5.5,0,1,1,0-1h3a.5.5,0,0,1,0,1Zm-7.09,0h-3a.5.5,0,0,1,0-1h3a.5.5,0,0,1,0,1Zm-7.1,0h-3a.5.5,0,1,1,0-1h3a.5.5,0,1,1,0,1Z"></path>
    <path class="orange" d="M2,58.3H.5a.5.5,0,0,1-.5-.5V56.3a.5.5,0,0,1,.5-.5.5.5,0,0,1,.5.5v1H2a.5.5,0,0,1,0,1Z"></path>
    <path class="orange" d="M.5,52.7a.5.5,0,0,1-.5-.5V49.13a.5.5,0,0,1,.5-.5.5.5,0,0,1,.5.5V52.2A.5.5,0,0,1,.5,52.7Zm0-7.17A.5.5,0,0,1,0,45V42a.5.5,0,0,1,.5-.5A.5.5,0,0,1,1,42V45A.5.5,0,0,1,.5,45.53Zm0-7.17a.5.5,0,0,1-.5-.5V34.78a.5.5,0,0,1,1,0v3.08A.5.5,0,0,1,.5,38.36Zm0-7.17a.5.5,0,0,1-.5-.5V27.61a.5.5,0,0,1,1,0v3.08A.5.5,0,0,1,.5,31.19ZM.5,24a.5.5,0,0,1-.5-.5V20.44a.5.5,0,0,1,.5-.5.5.5,0,0,1,.5.5v3.07A.5.5,0,0,1,.5,24Zm0-7.17a.5.5,0,0,1-.5-.5V13.27a.5.5,0,0,1,.5-.5.5.5,0,0,1,.5.5v3.07A.5.5,0,0,1,.5,16.84Zm0-7.17a.5.5,0,0,1-.5-.5V6.1a.5.5,0,0,1,.5-.5.5.5,0,0,1,.5.5V9.17A.5.5,0,0,1,.5,9.67Z"></path>
    <path class="orange" d="M.5,2.5A.5.5,0,0,1,0,2V.5A.5.5,0,0,1,.5,0H2a.5.5,0,0,1,.5.5A.5.5,0,0,1,2,1H1V2A.5.5,0,0,1,.5,2.5Z"></path>
    <path class="orange" d="M115.51,1h-3a.5.5,0,0,1-.5-.5.5.5,0,0,1,.5-.5h3a.5.5,0,0,1,.5.5A.5.5,0,0,1,115.51,1Zm-7.09,0h-3a.5.5,0,0,1-.5-.5.5.5,0,0,1,.5-.5h3a.5.5,0,0,1,0,1Zm-7.1,0h-3a.5.5,0,0,1-.5-.5.5.5,0,0,1,.5-.5h3a.5.5,0,0,1,.5.5A.5.5,0,0,1,101.32,1ZM94.23,1h-3a.5.5,0,0,1-.5-.5.5.5,0,0,1,.5-.5h3a.5.5,0,0,1,0,1Zm-7.1,0h-3a.5.5,0,0,1,0-1h3a.5.5,0,0,1,.5.5A.5.5,0,0,1,87.13,1ZM80,1H77a.5.5,0,0,1-.5-.5A.5.5,0,0,1,77,0h3a.5.5,0,0,1,.5.5A.5.5,0,0,1,80,1Zm-7.1,0h-3a.5.5,0,0,1,0-1h3a.5.5,0,0,1,.5.5A.5.5,0,0,1,72.94,1ZM65.85,1h-3a.5.5,0,0,1-.5-.5.5.5,0,0,1,.5-.5h3a.5.5,0,0,1,.5.5A.5.5,0,0,1,65.85,1Zm-7.1,0h-3a.5.5,0,0,1,0-1h3a.5.5,0,0,1,.5.5A.5.5,0,0,1,58.75,1ZM51.66,1h-3a.5.5,0,0,1-.5-.5.5.5,0,0,1,.5-.5h3a.5.5,0,0,1,.5.5A.5.5,0,0,1,51.66,1ZM44.57,1h-3A.5.5,0,0,1,41,.5a.5.5,0,0,1,.5-.5h3a.5.5,0,0,1,0,1Zm-7.1,0h-3a.5.5,0,0,1,0-1h3a.5.5,0,0,1,.5.5A.5.5,0,0,1,37.47,1ZM30.38,1h-3a.5.5,0,0,1-.5-.5.5.5,0,0,1,.5-.5h3a.5.5,0,0,1,0,1Zm-7.1,0h-3a.5.5,0,0,1,0-1h3a.5.5,0,0,1,.5.5A.5.5,0,0,1,23.28,1ZM16.19,1h-3a.5.5,0,0,1-.5-.5.5.5,0,0,1,.5-.5h3a.5.5,0,0,1,0,1ZM9.09,1h-3a.5.5,0,0,1,0-1h3a.5.5,0,0,1,.5.5A.5.5,0,0,1,9.09,1Z"></path>
    <path class="orange" d="M121.06,2.5a.5.5,0,0,1-.5-.5V1h-1a.5.5,0,0,1,0-1h1.5a.5.5,0,0,1,.5.5V2A.5.5,0,0,1,121.06,2.5Z"></path>
    <path class="orange" d="M121.06,52.7a.5.5,0,0,1-.5-.5V49.13a.5.5,0,0,1,.5-.5.5.5,0,0,1,.5.5V52.2A.5.5,0,0,1,121.06,52.7Zm0-7.17a.5.5,0,0,1-.5-.5V42a.5.5,0,0,1,.5-.5.5.5,0,0,1,.5.5V45A.5.5,0,0,1,121.06,45.53Zm0-7.17a.51.51,0,0,1-.5-.5V34.78a.51.51,0,0,1,.5-.5.5.5,0,0,1,.5.5v3.08A.5.5,0,0,1,121.06,38.36Zm0-7.17a.51.51,0,0,1-.5-.5V27.61a.51.51,0,0,1,.5-.5.5.5,0,0,1,.5.5v3.08A.5.5,0,0,1,121.06,31.19Zm0-7.18a.5.5,0,0,1-.5-.5V20.44a.51.51,0,0,1,.5-.5.5.5,0,0,1,.5.5v3.07A.5.5,0,0,1,121.06,24Zm0-7.17a.5.5,0,0,1-.5-.5V13.27a.5.5,0,0,1,.5-.5.5.5,0,0,1,.5.5v3.07A.5.5,0,0,1,121.06,16.84Zm0-7.17a.5.5,0,0,1-.5-.5V6.1a.5.5,0,0,1,.5-.5.5.5,0,0,1,.5.5V9.17A.5.5,0,0,1,121.06,9.67Z"></path>
    <path class="white" d="M7.24,28.4,6.09,26.84,5,28.4H4.52l1.35-1.83L4.6,24.84H5L6.11,26.3l1.06-1.46h.41L6.32,26.56,7.68,28.4Z"></path>
</g>
</svg>