<svg viewBox="0 0 142.8 50" xmlns="http://www.w3.org/2000/svg" xml:space="preserve">
    <path fill="currentColor" class="colorPurple" d="M22.4,0c3.9,0.2,6.5,0.7,12.8,2.7l6.4,28.2L22.4,50v-2.4l17.4-17.3l-6-26.3c-5.1-1.6-7.2-2-9.8-2.2L19.1,50 L0,30.9L6.4,2.7c6.2-2,8.6-2.5,12.8-2.7l0,1.7C15.3,2,13.8,2.2,7.8,4.1l-6,26.3l15.9,15.8L22.4,0z"/>
    <path fill="currentColor" class="colorOrange" d="M20.8,13.1c-1.8,0-3.3,1.5-3.3,3.3v9.9c0,1.8,1.5,3.3,3.3,3.3c1.8,0,3.3-1.5,3.3-3.3v-9.9 C24.1,14.5,22.6,13.1,20.8,13.1z"/>
    <g>
        <polygon fill="currentColor" class="colorPurple" points="53.4,27.2 58.9,30.4 58.9,29.2 54.8,26.8 58.9,24.4 58.9,23.2 53.4,26.4"/>
        <polygon fill="currentColor" class="colorPurple" points="137.4,23.3 137.4,24.4 141.5,26.8 137.4,29.3 137.4,30.5 142.8,27.2 142.8,26.5"/>
        <path fill="currentColor" d="M67.7,24.2c-0.2-0.3-0.5-0.5-0.9-0.7c-0.7-0.4-1.3-0.6-1.9-0.6c-1,0-2,0.4-2.7,1.2c-0.8,0.8-1.1,1.7-1.1,2.7 c0,1,0.4,2,1.1,2.7c0.8,0.8,1.7,1.2,2.7,1.2c0.6,0,1.2-0.2,1.9-0.6c0.3-0.2,0.6-0.4,0.9-0.7v1.2h1v-12h-1V24.2z M62.9,28.8 c-0.6-0.6-0.8-1.2-0.8-2c0-0.8,0.3-1.4,0.8-2c0.6-0.6,1.3-0.9,2-0.9s1.4,0.3,2,0.9c0.6,0.6,0.9,1.2,0.9,2c0,0.8-0.3,1.4-0.9,2 c-0.6,0.6-1.3,0.9-2,0.9C64.1,29.7,63.4,29.4,62.9,28.8z"/>
        <path fill="currentColor" d="M76.1,29.3c-0.9,0.5-2,0.6-3-0.2l4.6-4.6c-2.3-3.2-7-1.4-7,2.2c0.1,3.8,4.7,5.4,7.1,2.4l0-1.7 C77.3,28.4,76.9,29,76.1,29.3z M76.4,24.5l-3.9,3.9C70.4,26,73.9,22.5,76.4,24.5z"/>
        <path fill="currentColor" d="M97.9,29.3c-0.9,0.5-2,0.6-3-0.2l4.6-4.6c-2.3-3.2-7-1.4-7,2.2c0.1,3.8,4.7,5.4,7.1,2.4l0-1.7 C99.1,28.4,98.6,29,97.9,29.3z M98.1,24.5l-3.9,3.9C92.2,26,95.6,22.5,98.1,24.5z"/>
        <path fill="currentColor" d="M124.8,29.3c-0.9,0.5-2,0.6-3-0.2l4.6-4.6c-2.3-3.2-7-1.4-7,2.2c0.1,3.8,4.7,5.4,7.1,2.4l0-1.7 C126,28.4,125.5,29,124.8,29.3z M125,24.5l-3.9,3.9C119.1,26,122.5,22.5,125,24.5z"/>
        <path fill="currentColor" d="M83.4,22.9c-1,0-1.8,0.3-2.4,0.9v-0.8h-1v7.5h1v-4.4c0-0.6,0.2-1.2,0.7-1.6c0.5-0.5,1-0.7,1.6-0.7 c0.6,0,1.1,0.2,1.6,0.7c0.4,0.5,0.7,1,0.7,1.6v4.4h1v-4.4c0-0.9-0.3-1.7-0.9-2.3C85.1,23.2,84.3,22.9,83.4,22.9z"/>
        <path fill="currentColor" d="M132,22.9c-1,0-1.8,0.3-2.4,0.9v-0.8h-1v7.5h1v-4.4c0-0.6,0.2-1.2,0.7-1.6c0.5-0.5,1-0.7,1.6-0.7 c0.6,0,1.1,0.2,1.6,0.7c0.4,0.5,0.7,1,0.7,1.6v4.4h1v-4.4c0-0.9-0.3-1.7-0.9-2.3C133.7,23.2,132.9,22.9,132,22.9z"/>
        <ellipse fill="currentColor" cx="89.6" cy="21.3" rx="0.7" ry="0.7"/>
        <rect x="89.1" y="23.1" fill="currentColor" width="1" height="7.5"/>
        <polygon fill="currentColor" class="colorPurple" points="109.4,18.8 100.6,30.7 101.8,30.7 110.7,18.8"/>
        <path fill="currentColor" d="M116.3,24.2c-0.2-0.3-0.5-0.5-0.9-0.7c-0.7-0.4-1.3-0.6-1.9-0.6c-1,0-2,0.4-2.7,1.2c-0.8,0.8-1.1,1.7-1.1,2.7 c0,1,0.4,2,1.1,2.7c0.8,0.8,1.7,1.2,2.7,1.2c0.6,0,1.2-0.2,1.9-0.6c0.3-0.2,0.6-0.4,0.9-0.7v1.2h1v-12h-1V24.2z M111.5,28.8 c-0.6-0.6-0.8-1.2-0.8-2c0-0.8,0.3-1.4,0.8-2c0.6-0.6,1.3-0.9,2-0.9s1.4,0.3,2,0.9c0.6,0.6,0.9,1.2,0.9,2c0,0.8-0.3,1.4-0.9,2 c-0.6,0.6-1.3,0.9-2,0.9C112.8,29.7,112.1,29.4,111.5,28.8z"/>
    </g>
</svg>