<?xml version="1.0" encoding="UTF-8"?>
<svg xmlns="http://www.w3.org/2000/svg" viewBox="0 0 42.5 42.5" xml:space="preserve">
<path fill="#890052" d="M22.6,0c3.3,0.2,5.5,0.6,10.9,2.3l5.4,24L22.6,42.5v-2l14.8-14.7L32.3,3.5c-2.7-1-5.5-1.6-8.3-1.9l-4.2,40.9  L3.6,26.3L9,2.3c5.3-1.7,7.3-2.1,10.9-2.3v1.5c-3.3,0.3-4.6,0.4-9.7,2L5.2,25.8l13.5,13.4L22.6,0z"></path>
<path fill="#FF9200" d="M21.3,11.1c-1.6,0-2.8,1.3-2.8,2.8c0,0,0,0,0,0v8.4c0,1.6,1.3,2.8,2.8,2.8s2.8-1.3,2.8-2.8c0,0,0,0,0,0v-8.4  C24.1,12.4,22.8,11.1,21.3,11.1C21.3,11.1,21.3,11.1,21.3,11.1"></path>
</svg>